<svg width="100" height="100" viewBox="0 0 100 100" fill="none" xmlns="http://www.w3.org/2000/svg">
<path d="M50 92.4292C48.5229 92.4292 47.0437 91.8875 45.8917 90.8021L17.9187 64.4708C16.7208 63.3437 16.0333 61.7521 16.0333 60.1063V25.9771C16.0333 24.3542 16.7062 22.7771 17.8792 21.6521L32.4562 7.67917C33.5792 6.60417 35.0521 6.0125 36.6042 6.0125H63.3958C64.95 6.0125 66.4229 6.60417 67.5438 7.67917L82.1188 21.6521C83.2917 22.7771 83.9646 24.3542 83.9646 25.9792V60.1083C83.9646 61.7542 83.2771 63.3438 82.0792 64.4729L54.1083 90.8042C52.9562 91.8875 51.4792 92.4292 50 92.4292Z" fill="url(#paint0_linear_3_12)"/>
<path d="M62.5 31.25V55.0333L56.075 61.075L65.1687 69.4771L75 60.225L75.0021 31.25H62.5Z" fill="url(#paint1_linear_3_12)"/>
<path d="M75.2167 25L69.2896 18.8896L62.9271 12.5H36.9083L30.7083 18.8896L24.7833 25H43.75H56.25H75.2167Z" fill="url(#paint2_linear_3_12)"/>
<path d="M68.7083 31.25H62.5V55.0333L56.075 61.075L60.7021 65.3438L68.7062 57.8125L68.7083 31.25Z" fill="url(#paint3_linear_3_12)"/>
<path d="M50 94.2729C48.4583 94.2729 46.9167 93.7083 45.7146 92.5771L16.5479 65.1208C15.3 63.9479 14.5833 62.2875 14.5833 60.5729V24.9854C14.5833 23.2917 15.2833 21.6479 16.5063 20.475L31.7042 5.90417C32.875 4.78333 34.4125 4.16667 36.0313 4.16667H63.9688C65.5875 4.16667 67.125 4.78333 68.2937 5.90417L83.4917 20.475C84.7146 21.6479 85.4167 23.2917 85.4167 24.9854V60.5729C85.4167 62.2896 84.7 63.9479 83.4521 65.1229L54.2854 92.5792C53.0833 93.7083 51.5417 94.2729 50 94.2729ZM36.0313 8.33333C35.4917 8.33333 34.9792 8.53958 34.5896 8.9125L19.3917 23.4813C18.9833 23.8729 18.75 24.4208 18.75 24.9854V60.5729C18.75 61.1437 18.9896 61.6979 19.4042 62.0896L48.5708 89.5458C49.3708 90.2979 50.6271 90.2979 51.4271 89.5458L80.5938 62.0896C81.0104 61.6979 81.2479 61.1437 81.2479 60.5729V24.9854C81.2479 24.4208 81.0146 23.8729 80.6042 23.4813L65.4083 8.9125C65.0208 8.53958 64.5083 8.33333 63.9688 8.33333H36.0313Z" fill="url(#paint4_linear_3_12)"/>
<path d="M30.7104 18.8896L24.7833 25H43.75H56.25H75.2167L69.2896 18.8896L69.1521 18.75H30.8458L30.7104 18.8896Z" fill="url(#paint5_linear_3_12)"/>
<path d="M50 18.75L43.75 25V80.1937L50 86.4708L56.25 80.1937V25L50 18.75Z" fill="#727D86"/>
<path d="M50 86.4688L56.25 80.1937V25H56.2521L50 18.75V86.4688Z" fill="url(#paint6_linear_3_12)"/>
<path d="M68.7083 31.25H62.5V55.0333L68.7063 57.8125L68.7083 31.25Z" fill="url(#paint7_linear_3_12)"/>
<path d="M50 18.75L56.25 25H75.2167L69.2896 18.8896L69.1521 18.75H50Z" fill="url(#paint8_linear_3_12)"/>
<path d="M24.9313 31.25L24.9333 60.225L34.7646 69.4771L43.8583 61.075L37.4333 55.0333V31.25H24.9313Z" fill="url(#paint9_linear_3_12)"/>
<path d="M31.2271 31.25H37.4333V55.0333L43.8583 61.075L39.2312 65.3438L31.2292 57.8125L31.2271 31.25Z" fill="url(#paint10_linear_3_12)"/>
<path d="M31.2271 31.25H37.4333V55.0333L31.2292 57.8125L31.2271 31.25Z" fill="url(#paint11_linear_3_12)"/>
<defs>
<linearGradient id="paint0_linear_3_12" x1="87.8729" y1="89.5104" x2="50.3729" y2="43.5" gradientUnits="userSpaceOnUse">
<stop stop-color="#4B4B4B"/>
<stop offset="0.531" stop-color="#393939"/>
<stop offset="1" stop-color="#252525"/>
</linearGradient>
<linearGradient id="paint1_linear_3_12" x1="69.7208" y1="29.3104" x2="62.675" y2="82.1042" gradientUnits="userSpaceOnUse">
<stop stop-color="#484B4F"/>
<stop offset="0.23" stop-color="#656D75"/>
<stop offset="0.367" stop-color="#727D86"/>
</linearGradient>
<linearGradient id="paint2_linear_3_12" x1="50.1625" y1="6.71459" x2="49.8292" y2="44.2146" gradientUnits="userSpaceOnUse">
<stop stop-color="#484B4F"/>
<stop offset="0.23" stop-color="#656D75"/>
<stop offset="0.367" stop-color="#727D86"/>
</linearGradient>
<linearGradient id="paint3_linear_3_12" x1="56.075" y1="48.2979" x2="68.7083" y2="48.2979" gradientUnits="userSpaceOnUse">
<stop stop-color="#A1AAB3"/>
<stop offset="1" stop-color="#8F979E"/>
</linearGradient>
<linearGradient id="paint4_linear_3_12" x1="18.5313" y1="9.89792" x2="93.5313" y2="88.2667" gradientUnits="userSpaceOnUse">
<stop stop-color="#4B4B4B"/>
<stop offset="0.531" stop-color="#393939"/>
<stop offset="1" stop-color="#252525"/>
</linearGradient>
<linearGradient id="paint5_linear_3_12" x1="24.7833" y1="21.875" x2="75.2167" y2="21.875" gradientUnits="userSpaceOnUse">
<stop stop-color="#A1AAB3"/>
<stop offset="1" stop-color="#8F979E"/>
</linearGradient>
<linearGradient id="paint6_linear_3_12" x1="45.3208" y1="51.8979" x2="90.1771" y2="58.7229" gradientUnits="userSpaceOnUse">
<stop stop-color="#484B4F"/>
<stop offset="0.23" stop-color="#656D75"/>
<stop offset="0.367" stop-color="#727D86"/>
</linearGradient>
<linearGradient id="paint7_linear_3_12" x1="75.55" y1="59.8042" x2="55.0708" y2="25.4958" gradientUnits="userSpaceOnUse">
<stop stop-color="#737B80"/>
<stop offset="0.473" stop-color="#686F74"/>
<stop offset="1" stop-color="#575C61"/>
</linearGradient>
<linearGradient id="paint8_linear_3_12" x1="50.5354" y1="21.8375" x2="108.335" y2="22.0146" gradientUnits="userSpaceOnUse">
<stop stop-color="#484B4F"/>
<stop offset="0.23" stop-color="#656D75"/>
<stop offset="0.367" stop-color="#727D86"/>
</linearGradient>
<linearGradient id="paint9_linear_3_12" x1="30.2104" y1="29.3104" x2="37.2583" y2="82.1042" gradientUnits="userSpaceOnUse">
<stop stop-color="#484B4F"/>
<stop offset="0.23" stop-color="#656D75"/>
<stop offset="0.367" stop-color="#727D86"/>
</linearGradient>
<linearGradient id="paint10_linear_3_12" x1="43.8562" y1="48.2979" x2="31.225" y2="48.2979" gradientUnits="userSpaceOnUse">
<stop stop-color="#A1AAB3"/>
<stop offset="1" stop-color="#8F979E"/>
</linearGradient>
<linearGradient id="paint11_linear_3_12" x1="24.3833" y1="59.8042" x2="44.8625" y2="25.4958" gradientUnits="userSpaceOnUse">
<stop stop-color="#737B80"/>
<stop offset="0.473" stop-color="#686F74"/>
<stop offset="1" stop-color="#575C61"/>
</linearGradient>
</defs>
</svg>
